<svg xmlns="http://www.w3.org/2000/svg" xmlns:xlink="http://www.w3.org/1999/xlink" width="1920" zoomAndPan="magnify" viewBox="0 0 1440 809.999993" height="1080" preserveAspectRatio="xMidYMid meet" version="1.0"><defs><g/><clipPath id="2151967ec6"><rect x="0" width="1201" y="0" height="810"/></clipPath><clipPath id="c9e52eb20f"><rect x="0" width="237" y="0" height="313"/></clipPath></defs><g transform="matrix(1, 0, 0, 1, 74, 0.000000000000039746)"><g clip-path="url(#2151967ec6)"><g fill="#1e1e1e" fill-opacity="1"><g transform="translate(1.593338, 655.794329)"><g><path d="M 36.15625 0 L 36.15625 -632.859375 L 64.1875 -632.859375 L 64.1875 0 Z M 36.15625 0 "/></g></g></g><g fill="#1e1e1e" fill-opacity="1"><g transform="translate(56.742677, 655.794329)"><g><path d="M 97.640625 0 C 80.765625 0 66.296875 -6.023438 54.234375 -18.078125 C 42.179688 -30.128906 36.15625 -44.597656 36.15625 -61.484375 L 36.15625 -452.046875 L 64.1875 -452.046875 L 64.1875 -61.484375 C 64.1875 -52.441406 67.5 -44.601562 74.125 -37.96875 C 80.757812 -31.34375 88.597656 -28.03125 97.640625 -28.03125 L 193.46875 -28.03125 C 203.113281 -28.03125 211.097656 -31.34375 217.421875 -37.96875 C 223.753906 -44.601562 226.921875 -52.441406 226.921875 -61.484375 L 226.921875 -452.046875 L 254.953125 -452.046875 L 254.953125 -61.484375 C 254.953125 -44.597656 249.070312 -30.128906 237.3125 -18.078125 C 225.5625 -6.023438 210.945312 0 193.46875 0 Z M 97.640625 0 "/></g></g></g><g fill="#1e1e1e" fill-opacity="1"><g transform="translate(302.655317, 655.794329)"><g><path d="M 36.15625 0 L 36.15625 -390.5625 C 36.15625 -407.445312 42.179688 -421.914062 54.234375 -433.96875 C 66.296875 -446.019531 80.765625 -452.046875 97.640625 -452.046875 L 166.359375 -452.046875 C 185.035156 -452.046875 201.003906 -444.507812 214.265625 -429.4375 C 226.328125 -444.507812 242 -452.046875 261.28125 -452.046875 L 330 -452.046875 C 347.476562 -452.046875 362.09375 -446.019531 373.84375 -433.96875 C 385.59375 -421.914062 391.46875 -407.445312 391.46875 -390.5625 L 391.46875 0 L 363.453125 0 L 363.453125 -390.5625 C 363.453125 -399.601562 360.285156 -407.4375 353.953125 -414.0625 C 347.617188 -420.695312 339.632812 -424.015625 330 -424.015625 L 261.28125 -424.015625 C 252.238281 -424.015625 244.398438 -420.695312 237.765625 -414.0625 C 231.140625 -407.4375 227.828125 -399.601562 227.828125 -390.5625 L 227.828125 0 L 199.8125 0 L 199.8125 -390.5625 C 199.8125 -399.601562 196.644531 -407.4375 190.3125 -414.0625 C 183.976562 -420.695312 175.992188 -424.015625 166.359375 -424.015625 L 97.640625 -424.015625 C 88.597656 -424.015625 80.757812 -420.695312 74.125 -414.0625 C 67.5 -407.4375 64.1875 -399.601562 64.1875 -390.5625 L 64.1875 0 Z M 36.15625 0 "/></g></g></g><g fill="#1e1e1e" fill-opacity="1"><g transform="translate(685.085499, 655.794329)"><g><path d="M 97.640625 0 C 80.765625 0 66.296875 -6.023438 54.234375 -18.078125 C 42.179688 -30.128906 36.15625 -44.597656 36.15625 -61.484375 L 36.15625 -389.671875 C 36.15625 -407.148438 42.179688 -421.914062 54.234375 -433.96875 C 66.296875 -446.019531 80.765625 -452.046875 97.640625 -452.046875 L 193.46875 -452.046875 C 210.945312 -452.046875 225.5625 -446.019531 237.3125 -433.96875 C 249.070312 -421.914062 254.953125 -407.148438 254.953125 -389.671875 L 254.953125 -61.484375 C 254.953125 -44.597656 249.070312 -30.128906 237.3125 -18.078125 C 225.5625 -6.023438 210.945312 0 193.46875 0 Z M 97.640625 -28.03125 L 193.46875 -28.03125 C 203.113281 -28.03125 211.097656 -31.34375 217.421875 -37.96875 C 223.753906 -44.601562 226.921875 -52.441406 226.921875 -61.484375 L 226.921875 -389.671875 C 226.921875 -399.304688 223.753906 -407.4375 217.421875 -414.0625 C 211.097656 -420.695312 203.113281 -424.015625 193.46875 -424.015625 L 97.640625 -424.015625 C 88.597656 -424.015625 80.757812 -420.695312 74.125 -414.0625 C 67.5 -407.4375 64.1875 -399.304688 64.1875 -389.671875 L 64.1875 -61.484375 C 64.1875 -52.441406 67.5 -44.601562 74.125 -37.96875 C 80.757812 -31.34375 88.597656 -28.03125 97.640625 -28.03125 Z M 97.640625 -28.03125 "/></g></g></g><g fill="#1e1e1e" fill-opacity="1"><g transform="translate(930.998149, 655.794329)"><g><path d="M 36.15625 0 L 36.15625 -390.5625 C 36.15625 -407.445312 42.179688 -421.914062 54.234375 -433.96875 C 66.296875 -446.019531 80.765625 -452.046875 97.640625 -452.046875 L 193.46875 -452.046875 C 210.945312 -452.046875 225.5625 -446.019531 237.3125 -433.96875 C 249.070312 -421.914062 254.953125 -407.445312 254.953125 -390.5625 L 254.953125 -281.171875 L 226.921875 -281.171875 L 226.921875 -390.5625 C 226.921875 -399.601562 223.753906 -407.4375 217.421875 -414.0625 C 211.097656 -420.695312 203.113281 -424.015625 193.46875 -424.015625 L 97.640625 -424.015625 C 88.597656 -424.015625 80.757812 -420.695312 74.125 -414.0625 C 67.5 -407.4375 64.1875 -399.601562 64.1875 -390.5625 L 64.1875 0 Z M 36.15625 0 "/></g></g></g></g></g><g fill="#1e1e1e" fill-opacity="1"><g transform="translate(55.040295, 805.026652)"><g><path d="M 4.125 -34.0625 L 7.546875 -34.0625 L 7.546875 0 L 4.125 0 Z M 4.125 -34.0625 "/></g></g></g><g fill="#1e1e1e" fill-opacity="1"><g transform="translate(84.736602, 805.026652)"><g><path d="M 27.421875 -34.0625 L 30.828125 -34.0625 L 30.828125 0 L 30.078125 0 L 7.546875 -25.765625 L 7.546875 0 L 4.125 0 L 4.125 -34.0625 L 4.84375 -34.0625 L 27.421875 -7.96875 Z M 27.421875 -34.0625 "/></g></g></g><g fill="#1e1e1e" fill-opacity="1"><g transform="translate(137.724748, 805.026652)"><g><path d="M 8.4375 -30.734375 L 0.765625 -30.734375 L 0.765625 -34.0625 L 19.453125 -34.0625 L 19.453125 -30.734375 L 11.859375 -30.734375 L 11.859375 0 L 8.4375 0 Z M 8.4375 -30.734375 "/></g></g></g><g fill="#1e1e1e" fill-opacity="1"><g transform="translate(176.007258, 805.026652)"><g><path d="M 4.125 -34.0625 L 23.578125 -34.0625 L 23.578125 -30.78125 L 7.546875 -30.78125 L 7.546875 -20.015625 L 23.578125 -20.015625 L 23.578125 -16.796875 L 7.546875 -16.796875 L 7.546875 -3.328125 L 23.578125 -3.328125 L 23.578125 0 L 4.125 0 Z M 4.125 -34.0625 "/></g></g></g><g fill="#1e1e1e" fill-opacity="1"><g transform="translate(219.460461, 805.026652)"><g><path d="M 13.859375 -34.0625 C 17.742188 -34.0625 20.648438 -33.253906 22.578125 -31.640625 C 24.503906 -30.023438 25.46875 -27.8125 25.46875 -25 C 25.46875 -22.976562 24.976562 -21.285156 24 -19.921875 C 23.019531 -18.566406 21.644531 -17.546875 19.875 -16.859375 C 18.101562 -16.179688 16.03125 -15.84375 13.65625 -15.84375 L 25.953125 0 L 21.71875 0 L 9.671875 -15.84375 L 7.546875 -15.84375 L 7.546875 0 L 4.125 0 L 4.125 -34.0625 Z M 13.65625 -19.171875 C 16.28125 -19.171875 18.3125 -19.644531 19.75 -20.59375 C 21.195312 -21.539062 21.921875 -23.007812 21.921875 -25 C 21.921875 -26.738281 21.300781 -28.128906 20.0625 -29.171875 C 18.832031 -30.210938 16.984375 -30.734375 14.515625 -30.734375 L 7.546875 -30.734375 L 7.546875 -19.171875 Z M 13.65625 -19.171875 "/></g></g></g><g fill="#1e1e1e" fill-opacity="1"><g transform="translate(265.617617, 805.026652)"><g><path d="M 4.125 -34.0625 L 7.546875 -34.0625 L 7.546875 0 L 4.125 0 Z M 4.125 -34.0625 "/></g></g></g><g fill="#1e1e1e" fill-opacity="1"><g transform="translate(295.313912, 805.026652)"><g><path d="M 20.640625 0.859375 C 17.222656 0.859375 14.144531 0.0507812 11.40625 -1.5625 C 8.675781 -3.175781 6.535156 -5.34375 4.984375 -8.0625 C 3.429688 -10.78125 2.65625 -13.722656 2.65625 -16.890625 C 2.65625 -20.210938 3.445312 -23.25 5.03125 -26 C 6.613281 -28.75 8.753906 -30.921875 11.453125 -32.515625 C 14.160156 -34.109375 17.125 -34.90625 20.34375 -34.90625 C 23.726562 -34.90625 26.8125 -34.125 29.59375 -32.5625 C 32.382812 -31 34.578125 -28.847656 36.171875 -26.109375 C 37.765625 -23.378906 38.5625 -20.351562 38.5625 -17.03125 C 38.5625 -13.738281 37.769531 -10.722656 36.1875 -7.984375 C 34.613281 -5.253906 32.457031 -3.097656 29.71875 -1.515625 C 26.976562 0.0664062 23.953125 0.859375 20.640625 0.859375 Z M 20.546875 -2.46875 C 23.171875 -2.46875 25.585938 -3.09375 27.796875 -4.34375 C 30.015625 -5.59375 31.769531 -7.332031 33.0625 -9.5625 C 34.363281 -11.789062 35.015625 -14.296875 35.015625 -17.078125 C 35.015625 -19.859375 34.34375 -22.351562 33 -24.5625 C 31.65625 -26.78125 29.875 -28.503906 27.65625 -29.734375 C 25.4375 -30.972656 23.066406 -31.59375 20.546875 -31.59375 C 18.046875 -31.59375 15.695312 -30.96875 13.5 -29.71875 C 11.300781 -28.46875 9.535156 -26.71875 8.203125 -24.46875 C 6.878906 -22.226562 6.21875 -19.703125 6.21875 -16.890625 C 6.21875 -14.171875 6.875 -11.710938 8.1875 -9.515625 C 9.5 -7.316406 11.242188 -5.59375 13.421875 -4.34375 C 15.609375 -3.09375 17.984375 -2.46875 20.546875 -2.46875 Z M 20.546875 -2.46875 "/></g></g></g><g fill="#1e1e1e" fill-opacity="1"><g transform="translate(354.611265, 805.026652)"><g><path d="M 13.859375 -34.0625 C 17.742188 -34.0625 20.648438 -33.253906 22.578125 -31.640625 C 24.503906 -30.023438 25.46875 -27.8125 25.46875 -25 C 25.46875 -22.976562 24.976562 -21.285156 24 -19.921875 C 23.019531 -18.566406 21.644531 -17.546875 19.875 -16.859375 C 18.101562 -16.179688 16.03125 -15.84375 13.65625 -15.84375 L 25.953125 0 L 21.71875 0 L 9.671875 -15.84375 L 7.546875 -15.84375 L 7.546875 0 L 4.125 0 L 4.125 -34.0625 Z M 13.65625 -19.171875 C 16.28125 -19.171875 18.3125 -19.644531 19.75 -20.59375 C 21.195312 -21.539062 21.921875 -23.007812 21.921875 -25 C 21.921875 -26.738281 21.300781 -28.128906 20.0625 -29.171875 C 18.832031 -30.210938 16.984375 -30.734375 14.515625 -30.734375 L 7.546875 -30.734375 L 7.546875 -19.171875 Z M 13.65625 -19.171875 "/></g></g></g><g fill="#1e1e1e" fill-opacity="1"><g transform="translate(400.778563, 805.026652)"><g/></g></g><g fill="#1e1e1e" fill-opacity="1"><g transform="translate(431.992871, 805.026652)"><g><path d="M 34.71875 0 L 29.984375 0 L 25.5625 -4.546875 C 23.957031 -3.316406 22.5625 -2.34375 21.375 -1.625 C 20.1875 -0.914062 18.890625 -0.332031 17.484375 0.125 C 16.078125 0.582031 14.550781 0.8125 12.90625 0.8125 C 11.101562 0.8125 9.546875 0.457031 8.234375 -0.25 C 6.921875 -0.96875 5.921875 -1.925781 5.234375 -3.125 C 4.554688 -4.332031 4.21875 -5.644531 4.21875 -7.0625 C 4.21875 -8.488281 4.539062 -9.832031 5.1875 -11.09375 C 5.84375 -12.363281 6.738281 -13.566406 7.875 -14.703125 C 9.007812 -15.835938 10.492188 -17.148438 12.328125 -18.640625 C 10.847656 -20.316406 9.757812 -21.765625 9.0625 -22.984375 C 8.363281 -24.203125 8.015625 -25.425781 8.015625 -26.65625 C 8.015625 -27.832031 8.347656 -28.882812 9.015625 -29.8125 C 9.679688 -30.75 10.585938 -31.476562 11.734375 -32 C 12.890625 -32.519531 14.164062 -32.78125 15.5625 -32.78125 C 17.007812 -32.78125 18.296875 -32.507812 19.421875 -31.96875 C 20.546875 -31.4375 21.421875 -30.703125 22.046875 -29.765625 C 22.679688 -28.835938 23 -27.785156 23 -26.609375 C 23 -25.691406 22.800781 -24.8125 22.40625 -23.96875 C 22.019531 -23.132812 21.40625 -22.257812 20.5625 -21.34375 C 19.726562 -20.425781 18.597656 -19.351562 17.171875 -18.125 C 19.453125 -15.71875 22.378906 -12.679688 25.953125 -9.015625 C 26.578125 -9.546875 27.195312 -10.085938 27.8125 -10.640625 C 28.4375 -11.203125 28.875 -11.59375 29.125 -11.8125 L 29.984375 -12.625 L 32.25 -10.15625 L 31.359375 -9.34375 C 30.722656 -8.738281 29.691406 -7.835938 28.265625 -6.640625 Z M 15.46875 -29.640625 C 14.769531 -29.640625 14.101562 -29.515625 13.46875 -29.265625 C 12.84375 -29.015625 12.332031 -28.660156 11.9375 -28.203125 C 11.539062 -27.742188 11.34375 -27.210938 11.34375 -26.609375 C 11.34375 -25.347656 12.539062 -23.34375 14.9375 -20.59375 C 18.101562 -22.988281 19.6875 -25.007812 19.6875 -26.65625 C 19.6875 -27.195312 19.503906 -27.695312 19.140625 -28.15625 C 18.773438 -28.613281 18.269531 -28.972656 17.625 -29.234375 C 16.976562 -29.503906 16.257812 -29.640625 15.46875 -29.640625 Z M 7.546875 -7.265625 C 7.546875 -6.441406 7.789062 -5.648438 8.28125 -4.890625 C 8.769531 -4.128906 9.441406 -3.507812 10.296875 -3.03125 C 11.148438 -2.5625 12.128906 -2.328125 13.234375 -2.328125 C 14.722656 -2.328125 16.269531 -2.710938 17.875 -3.484375 C 19.488281 -4.265625 21.296875 -5.410156 23.296875 -6.921875 L 22.390625 -7.875 C 19.640625 -10.6875 17.0625 -13.421875 14.65625 -16.078125 C 13.007812 -14.847656 11.6875 -13.765625 10.6875 -12.828125 C 9.695312 -11.898438 8.925781 -10.976562 8.375 -10.0625 C 7.820312 -9.144531 7.546875 -8.210938 7.546875 -7.265625 Z M 7.546875 -7.265625 "/></g></g></g><g fill="#1e1e1e" fill-opacity="1"><g transform="translate(485.265643, 805.026652)"><g/></g></g><g fill="#1e1e1e" fill-opacity="1"><g transform="translate(516.479951, 805.026652)"><g><path d="M 12.53125 -34.0625 C 16.820312 -34.0625 20.484375 -33.40625 23.515625 -32.09375 C 26.554688 -30.78125 28.875 -28.828125 30.46875 -26.234375 C 32.070312 -23.640625 32.875 -20.445312 32.875 -16.65625 C 32.875 -11.207031 31.332031 -7.066406 28.25 -4.234375 C 25.164062 -1.410156 20.445312 0 14.09375 0 L 4.125 0 L 4.125 -34.0625 Z M 14.09375 -3.328125 C 19.050781 -3.328125 22.828125 -4.398438 25.421875 -6.546875 C 28.015625 -8.691406 29.3125 -12.046875 29.3125 -16.609375 C 29.3125 -21.472656 27.847656 -25.039062 24.921875 -27.3125 C 22.003906 -29.59375 17.875 -30.734375 12.53125 -30.734375 L 7.546875 -30.734375 L 7.546875 -3.328125 Z M 14.09375 -3.328125 "/></g></g></g><g fill="#1e1e1e" fill-opacity="1"><g transform="translate(570.084784, 805.026652)"><g><path d="M 4.125 -34.0625 L 23.578125 -34.0625 L 23.578125 -30.78125 L 7.546875 -30.78125 L 7.546875 -20.015625 L 23.578125 -20.015625 L 23.578125 -16.796875 L 7.546875 -16.796875 L 7.546875 -3.328125 L 23.578125 -3.328125 L 23.578125 0 L 4.125 0 Z M 4.125 -34.0625 "/></g></g></g><g fill="#1e1e1e" fill-opacity="1"><g transform="translate(613.063618, 805.026652)"><g><path d="M 21.015625 0.8125 C 17.316406 0.8125 14.070312 0.015625 11.28125 -1.578125 C 8.5 -3.179688 6.363281 -5.347656 4.875 -8.078125 C 3.394531 -10.816406 2.65625 -13.863281 2.65625 -17.21875 C 2.65625 -20.539062 3.445312 -23.546875 5.03125 -26.234375 C 6.613281 -28.921875 8.800781 -31.035156 11.59375 -32.578125 C 14.394531 -34.128906 17.535156 -34.90625 21.015625 -34.90625 C 24.109375 -34.90625 26.921875 -34.296875 29.453125 -33.078125 C 31.984375 -31.867188 34.070312 -30.09375 35.71875 -27.75 L 33.015625 -25.71875 C 31.554688 -27.644531 29.804688 -29.101562 27.765625 -30.09375 C 25.734375 -31.09375 23.5 -31.59375 21.0625 -31.59375 C 18.375 -31.59375 15.898438 -30.96875 13.640625 -29.71875 C 11.378906 -28.46875 9.578125 -26.726562 8.234375 -24.5 C 6.890625 -22.269531 6.21875 -19.75 6.21875 -16.9375 C 6.21875 -14.15625 6.875 -11.65625 8.1875 -9.4375 C 9.5 -7.226562 11.300781 -5.488281 13.59375 -4.21875 C 15.882812 -2.957031 18.4375 -2.328125 21.25 -2.328125 C 23.625 -2.328125 25.8125 -2.800781 27.8125 -3.75 C 29.820312 -4.695312 31.617188 -6.101562 33.203125 -7.96875 L 35.90625 -5.921875 C 34.164062 -3.710938 32.019531 -2.035156 29.46875 -0.890625 C 26.925781 0.242188 24.109375 0.8125 21.015625 0.8125 Z M 21.015625 0.8125 "/></g></g></g><g fill="#1e1e1e" fill-opacity="1"><g transform="translate(668.328737, 805.026652)"><g><path d="M 20.640625 0.859375 C 17.222656 0.859375 14.144531 0.0507812 11.40625 -1.5625 C 8.675781 -3.175781 6.535156 -5.34375 4.984375 -8.0625 C 3.429688 -10.78125 2.65625 -13.722656 2.65625 -16.890625 C 2.65625 -20.210938 3.445312 -23.25 5.03125 -26 C 6.613281 -28.75 8.753906 -30.921875 11.453125 -32.515625 C 14.160156 -34.109375 17.125 -34.90625 20.34375 -34.90625 C 23.726562 -34.90625 26.8125 -34.125 29.59375 -32.5625 C 32.382812 -31 34.578125 -28.847656 36.171875 -26.109375 C 37.765625 -23.378906 38.5625 -20.351562 38.5625 -17.03125 C 38.5625 -13.738281 37.769531 -10.722656 36.1875 -7.984375 C 34.613281 -5.253906 32.457031 -3.097656 29.71875 -1.515625 C 26.976562 0.0664062 23.953125 0.859375 20.640625 0.859375 Z M 20.546875 -2.46875 C 23.171875 -2.46875 25.585938 -3.09375 27.796875 -4.34375 C 30.015625 -5.59375 31.769531 -7.332031 33.0625 -9.5625 C 34.363281 -11.789062 35.015625 -14.296875 35.015625 -17.078125 C 35.015625 -19.859375 34.34375 -22.351562 33 -24.5625 C 31.65625 -26.78125 29.875 -28.503906 27.65625 -29.734375 C 25.4375 -30.972656 23.066406 -31.59375 20.546875 -31.59375 C 18.046875 -31.59375 15.695312 -30.96875 13.5 -29.71875 C 11.300781 -28.46875 9.535156 -26.71875 8.203125 -24.46875 C 6.878906 -22.226562 6.21875 -19.703125 6.21875 -16.890625 C 6.21875 -14.171875 6.875 -11.710938 8.1875 -9.515625 C 9.5 -7.316406 11.242188 -5.59375 13.421875 -4.34375 C 15.609375 -3.09375 17.984375 -2.46875 20.546875 -2.46875 Z M 20.546875 -2.46875 "/></g></g></g><g fill="#1e1e1e" fill-opacity="1"><g transform="translate(727.62609, 805.026652)"><g><path d="M 13.859375 -34.0625 C 17.742188 -34.0625 20.648438 -33.253906 22.578125 -31.640625 C 24.503906 -30.023438 25.46875 -27.8125 25.46875 -25 C 25.46875 -22.976562 24.976562 -21.285156 24 -19.921875 C 23.019531 -18.566406 21.644531 -17.546875 19.875 -16.859375 C 18.101562 -16.179688 16.03125 -15.84375 13.65625 -15.84375 L 25.953125 0 L 21.71875 0 L 9.671875 -15.84375 L 7.546875 -15.84375 L 7.546875 0 L 4.125 0 L 4.125 -34.0625 Z M 13.65625 -19.171875 C 16.28125 -19.171875 18.3125 -19.644531 19.75 -20.59375 C 21.195312 -21.539062 21.921875 -23.007812 21.921875 -25 C 21.921875 -26.738281 21.300781 -28.128906 20.0625 -29.171875 C 18.832031 -30.210938 16.984375 -30.734375 14.515625 -30.734375 L 7.546875 -30.734375 L 7.546875 -19.171875 Z M 13.65625 -19.171875 "/></g></g></g><g transform="matrix(1, 0, 0, 1, 1061, 428)"><g clip-path="url(#c9e52eb20f)"><g fill="#1e1e1e" fill-opacity="1"><g transform="translate(198.755489, 312.338401)"><g><path d="M 0 -20.09375 C 0 -16.613281 -1.238281 -13.632812 -3.71875 -11.15625 C -6.195312 -8.675781 -9.171875 -7.4375 -12.640625 -7.4375 L -29.015625 -7.4375 L -29.015625 -13.203125 L -12.640625 -13.203125 C -10.785156 -13.203125 -9.175781 -13.882812 -7.8125 -15.25 C -6.445312 -16.613281 -5.765625 -18.226562 -5.765625 -20.09375 L -5.765625 -39.796875 C -5.765625 -41.785156 -6.445312 -43.429688 -7.8125 -44.734375 C -9.175781 -46.035156 -10.785156 -46.6875 -12.640625 -46.6875 L -24.546875 -46.6875 C -26.773438 -46.6875 -28.570312 -45.816406 -29.9375 -44.078125 L -55.046875 -12.28125 C -57.523438 -9.050781 -60.875 -7.4375 -65.09375 -7.4375 L -80.53125 -7.4375 C -84.125 -7.4375 -87.160156 -8.675781 -89.640625 -11.15625 C -92.117188 -13.632812 -93.359375 -16.613281 -93.359375 -20.09375 L -93.359375 -39.796875 C -93.359375 -43.390625 -92.117188 -46.425781 -89.640625 -48.90625 C -87.160156 -51.394531 -84.125 -52.640625 -80.53125 -52.640625 L -58.21875 -52.640625 L -58.21875 -46.6875 L -80.53125 -46.6875 C -82.507812 -46.6875 -84.179688 -46.035156 -85.546875 -44.734375 C -86.910156 -43.429688 -87.59375 -41.785156 -87.59375 -39.796875 L -87.59375 -20.09375 C -87.59375 -18.226562 -86.910156 -16.613281 -85.546875 -15.25 C -84.179688 -13.882812 -82.507812 -13.203125 -80.53125 -13.203125 L -65.09375 -13.203125 C -62.863281 -13.203125 -61.066406 -14.070312 -59.703125 -15.8125 L -34.40625 -47.796875 C -31.800781 -51.023438 -28.515625 -52.640625 -24.546875 -52.640625 L -12.640625 -52.640625 C -9.171875 -52.640625 -6.195312 -51.394531 -3.71875 -48.90625 C -1.238281 -46.425781 0 -43.390625 0 -39.796875 Z M 0 -20.09375 "/></g></g></g><g fill="#1e1e1e" fill-opacity="1"><g transform="translate(198.755489, 252.271856)"><g><path d="M 0 -28.078125 C 0 -24.609375 -1.238281 -21.632812 -3.71875 -19.15625 C -6.195312 -16.675781 -9.171875 -15.4375 -12.640625 -15.4375 L -87.234375 -15.4375 L -87.234375 -7.4375 L -92.984375 -7.4375 L -92.984375 -15.4375 L -130.1875 -15.4375 L -130.1875 -21.203125 L -92.984375 -21.203125 L -92.984375 -46.6875 L -87.234375 -46.6875 L -87.234375 -21.203125 L -12.640625 -21.203125 C -10.785156 -21.203125 -9.175781 -21.882812 -7.8125 -23.25 C -6.445312 -24.613281 -5.765625 -26.222656 -5.765625 -28.078125 L -5.765625 -41.46875 L 0 -41.46875 Z M 0 -28.078125 "/></g></g></g><g fill="#1e1e1e" fill-opacity="1"><g transform="translate(198.755489, 201.875461)"><g><path d="M 0 -20.09375 C 0 -16.613281 -1.238281 -13.632812 -3.71875 -11.15625 C -6.195312 -8.675781 -9.171875 -7.4375 -12.640625 -7.4375 L -92.984375 -7.4375 L -92.984375 -13.203125 L -12.640625 -13.203125 C -10.785156 -13.203125 -9.175781 -13.882812 -7.8125 -15.25 C -6.445312 -16.613281 -5.765625 -18.226562 -5.765625 -20.09375 L -5.765625 -39.796875 C -5.765625 -41.785156 -6.445312 -43.429688 -7.8125 -44.734375 C -9.175781 -46.035156 -10.785156 -46.6875 -12.640625 -46.6875 L -92.984375 -46.6875 L -92.984375 -52.453125 L -12.640625 -52.453125 C -9.171875 -52.453125 -6.195312 -51.238281 -3.71875 -48.8125 C -1.238281 -46.394531 0 -43.390625 0 -39.796875 Z M 0 -20.09375 "/></g></g></g><g fill="#1e1e1e" fill-opacity="1"><g transform="translate(198.755489, 141.994878)"><g><path d="M 0 -20.09375 C 0 -16.613281 -1.238281 -13.632812 -3.71875 -11.15625 C -6.195312 -8.675781 -9.171875 -7.4375 -12.640625 -7.4375 L -80.15625 -7.4375 C -83.75 -7.4375 -86.785156 -8.675781 -89.265625 -11.15625 C -91.742188 -13.632812 -92.984375 -16.613281 -92.984375 -20.09375 L -92.984375 -39.796875 C -92.984375 -42.273438 -92.304688 -44.570312 -90.953125 -46.6875 L -130.1875 -46.6875 L -130.1875 -52.640625 L 0 -52.640625 L 0 -46.6875 L -2.046875 -46.6875 C -0.679688 -44.570312 0 -42.273438 0 -39.796875 Z M -5.765625 -20.09375 L -5.765625 -39.796875 C -5.765625 -41.785156 -6.445312 -43.429688 -7.8125 -44.734375 C -9.175781 -46.035156 -10.785156 -46.6875 -12.640625 -46.6875 L -80.15625 -46.6875 C -82.144531 -46.6875 -83.820312 -46.035156 -85.1875 -44.734375 C -86.550781 -43.429688 -87.234375 -41.785156 -87.234375 -39.796875 L -87.234375 -20.09375 C -87.234375 -18.226562 -86.550781 -16.613281 -85.1875 -15.25 C -83.820312 -13.882812 -82.144531 -13.203125 -80.15625 -13.203125 L -12.640625 -13.203125 C -10.785156 -13.203125 -9.175781 -13.882812 -7.8125 -15.25 C -6.445312 -16.613281 -5.765625 -18.226562 -5.765625 -20.09375 Z M -5.765625 -20.09375 "/></g></g></g><g fill="#1e1e1e" fill-opacity="1"><g transform="translate(198.755489, 81.928346)"><g><path d="M 0 -7.4375 L -92.984375 -7.4375 L -92.984375 -13.203125 L 0 -13.203125 Z M -108.0625 -7.4375 L -130.375 -7.4375 L -130.375 -13.203125 L -108.0625 -13.203125 Z M -108.0625 -7.4375 "/></g></g></g><g fill="#1e1e1e" fill-opacity="1"><g transform="translate(198.755489, 61.286266)"><g><path d="M 0 -20.09375 C 0 -16.613281 -1.238281 -13.632812 -3.71875 -11.15625 C -6.195312 -8.675781 -9.171875 -7.4375 -12.640625 -7.4375 L -80.15625 -7.4375 C -83.75 -7.4375 -86.785156 -8.675781 -89.265625 -11.15625 C -91.742188 -13.632812 -92.984375 -16.613281 -92.984375 -20.09375 L -92.984375 -39.796875 C -92.984375 -43.390625 -91.742188 -46.394531 -89.265625 -48.8125 C -86.785156 -51.238281 -83.75 -52.453125 -80.15625 -52.453125 L -12.640625 -52.453125 C -9.171875 -52.453125 -6.195312 -51.238281 -3.71875 -48.8125 C -1.238281 -46.394531 0 -43.390625 0 -39.796875 Z M -5.765625 -20.09375 L -5.765625 -39.796875 C -5.765625 -41.785156 -6.445312 -43.429688 -7.8125 -44.734375 C -9.175781 -46.035156 -10.785156 -46.6875 -12.640625 -46.6875 L -80.15625 -46.6875 C -82.144531 -46.6875 -83.820312 -46.035156 -85.1875 -44.734375 C -86.550781 -43.429688 -87.234375 -41.785156 -87.234375 -39.796875 L -87.234375 -20.09375 C -87.234375 -18.226562 -86.550781 -16.613281 -85.1875 -15.25 C -83.820312 -13.882812 -82.144531 -13.203125 -80.15625 -13.203125 L -12.640625 -13.203125 C -10.785156 -13.203125 -9.175781 -13.882812 -7.8125 -15.25 C -6.445312 -16.613281 -5.765625 -18.226562 -5.765625 -20.09375 Z M -5.765625 -20.09375 "/></g></g></g></g></g><path stroke-linecap="butt" transform="matrix(0.75, 0, 0, 0.75, 55.040295, 654.687299)" fill="none" stroke-linejoin="miter" d="M -0.00164394 114.203399 L 1302.514047 114.203399 C 1319.633839 114.203399 1333.514048 100.328398 1333.514048 83.203397 L 1333.514048 0.000267915 " stroke="#1e1e1e" stroke-width="38" stroke-opacity="1" stroke-miterlimit="4"/></svg>